<?xml version="1.0" encoding="UTF-8" standalone="no"?>
<!-- Created with Inkscape (http://www.inkscape.org/) -->

<svg
   xmlns:dc="http://purl.org/dc/elements/1.1/"
   xmlns:cc="http://creativecommons.org/ns#"
   xmlns:rdf="http://www.w3.org/1999/02/22-rdf-syntax-ns#"
   xmlns:svg="http://www.w3.org/2000/svg"
   xmlns="http://www.w3.org/2000/svg"
   xmlns:sodipodi="http://sodipodi.sourceforge.net/DTD/sodipodi-0.dtd"
   xmlns:inkscape="http://www.inkscape.org/namespaces/inkscape"
   width="1285.7875"
   height="897.45032"
   viewBox="0 0 1285.7875 897.45033"
   id="svg5194"
   version="1.1"
   inkscape:version="0.91 r"
   sodipodi:docname="decorator_infantil.svg">
  <defs
     id="defs5196" />
  <sodipodi:namedview
     id="base"
     pagecolor="#ffffff"
     bordercolor="#666666"
     borderopacity="1.0"
     inkscape:pageopacity="0.0"
     inkscape:pageshadow="2"
     inkscape:zoom="0.8682611"
     inkscape:cx="725.31647"
     inkscape:cy="401.54115"
     inkscape:document-units="px"
     inkscape:current-layer="g5153"
     showgrid="false"
     units="px"
     fit-margin-top="0"
     fit-margin-left="0"
     fit-margin-right="0"
     fit-margin-bottom="0"
     inkscape:window-width="1855"
     inkscape:window-height="1056"
     inkscape:window-x="65"
     inkscape:window-y="24"
     inkscape:window-maximized="1" />
  <metadata
     id="metadata5199">
    <rdf:RDF>
      <cc:Work
         rdf:about="">
        <dc:format>image/svg+xml</dc:format>
        <dc:type
           rdf:resource="http://purl.org/dc/dcmitype/StillImage" />
        <dc:title />
      </cc:Work>
    </rdf:RDF>
  </metadata>
  <g
     inkscape:label="Capa 1"
     inkscape:groupmode="layer"
     id="layer1"
     transform="translate(142.56304,-234.49058)">
    <g
       transform="translate(-424.01422,143.01986)"
       id="g5153">
      <path
         transform="translate(-1115.4753,203.40189)"
         d="m 2211.4286,-23.048368 -43.9404,38.964274 -55.7143,-18.5714286 -11.7738,-57.5357034 43.9404,-38.964274 55.7143,18.571429 z"
         inkscape:randomized="0"
         inkscape:rounded="0"
         inkscape:flatsided="true"
         sodipodi:arg2="0.84534932"
         sodipodi:arg1="0.32175055"
         sodipodi:r2="60.012753"
         sodipodi:r1="58.728016"
         sodipodi:cy="-41.619797"
         sodipodi:cx="2155.7144"
         sodipodi:sides="6"
         id="path6633-4"
         style="display:inline;opacity:0.8091603;fill:#f3f6d4;fill-opacity:1;fill-rule:nonzero;stroke:none"
         sodipodi:type="star" />
      <path
         inkscape:transform-center-y="7.0710678"
         inkscape:transform-center-x="132.32998"
         sodipodi:type="star"
         style="display:inline;opacity:0.8091603;fill:#f6f6f6;fill-opacity:1;fill-rule:nonzero;stroke:none"
         id="path6641-2"
         sodipodi:sides="6"
         sodipodi:cx="1754.2856"
         sodipodi:cy="328.38019"
         sodipodi:r1="103.88376"
         sodipodi:r2="4.205852"
         sodipodi:arg1="1.0209431"
         sodipodi:arg2="1.7016545"
         inkscape:flatsided="false"
         inkscape:rounded="0"
         inkscape:randomized="0"
         d="m 1808.5714,416.95161 -54.8346,-84.40153 -49.0134,87.12863 45.6766,-89.68885 -99.9623,1.11743 100.5111,-5.28732 -50.9489,-86.0112 54.8345,84.40152 49.0135,-87.12862 -45.6766,89.68885 99.9623,-1.11743 -100.5111,5.28732 z"
         transform="matrix(0.52701818,0.5087337,-0.5087337,0.52701818,27.304246,-727.64645)" />
      <path
         transform="matrix(0.73224679,0.01930749,-0.01930749,0.73224679,-857.99693,474.31059)"
         d="m 1808.5714,416.95161 -54.8346,-84.40153 -49.0134,87.12863 45.6766,-89.68885 -99.9623,1.11743 100.5111,-5.28732 -50.9489,-86.0112 54.8345,84.40152 49.0135,-87.12862 -45.6766,89.68885 99.9623,-1.11743 -100.5111,5.28732 z"
         inkscape:randomized="0"
         inkscape:rounded="0"
         inkscape:flatsided="false"
         sodipodi:arg2="1.7016545"
         sodipodi:arg1="1.0209431"
         sodipodi:r2="4.205852"
         sodipodi:r1="103.88376"
         sodipodi:cy="328.38019"
         sodipodi:cx="1754.2856"
         sodipodi:sides="6"
         id="path6690"
         style="display:inline;opacity:0.8091603;fill:#f6f6f6;fill-opacity:1;fill-rule:nonzero;stroke:none"
         sodipodi:type="star"
         inkscape:transform-center-x="92.822665"
         inkscape:transform-center-y="94.578933" />
      <path
         sodipodi:type="star"
         style="display:inline;opacity:0.8091603;fill:#f3f6d4;fill-opacity:1;fill-rule:nonzero;stroke:none"
         id="path6692"
         sodipodi:sides="6"
         sodipodi:cx="2155.7144"
         sodipodi:cy="-41.619797"
         sodipodi:r1="58.728016"
         sodipodi:r2="60.012753"
         sodipodi:arg1="0.32175055"
         sodipodi:arg2="0.84534932"
         inkscape:flatsided="true"
         inkscape:rounded="0"
         inkscape:randomized="0"
         d="m 2211.4286,-23.048368 -43.9404,38.964274 -55.7143,-18.5714286 -11.7738,-57.5357034 43.9404,-38.964274 55.7143,18.571429 z"
         transform="matrix(-0.64383767,0.12316318,-0.12316318,-0.64383767,2597.7996,180.99075)" />
      <path
         transform="matrix(-0.64711078,-0.10461242,0.10461242,-0.64711078,2270.7641,815.44508)"
         d="m 2211.4286,-23.048368 -43.9404,38.964274 -55.7143,-18.5714286 -11.7738,-57.5357034 43.9404,-38.964274 55.7143,18.571429 z"
         inkscape:randomized="0"
         inkscape:rounded="0"
         inkscape:flatsided="true"
         sodipodi:arg2="0.84534932"
         sodipodi:arg1="0.32175055"
         sodipodi:r2="60.012753"
         sodipodi:r1="58.728016"
         sodipodi:cy="-41.619797"
         sodipodi:cx="2155.7144"
         sodipodi:sides="6"
         id="path6694"
         style="display:inline;opacity:0.8091603;fill:#f3f6d4;fill-opacity:1;fill-rule:nonzero;stroke:none"
         sodipodi:type="star" />
      <path
         sodipodi:type="star"
         style="display:inline;opacity:0.8091603;fill:#f3f6d4;fill-opacity:1;fill-rule:nonzero;stroke:none"
         id="path6697"
         sodipodi:sides="6"
         sodipodi:cx="2155.7144"
         sodipodi:cy="-41.619797"
         sodipodi:r1="58.728016"
         sodipodi:r2="60.012753"
         sodipodi:arg1="0.32175055"
         sodipodi:arg2="0.84534932"
         inkscape:flatsided="true"
         inkscape:rounded="0"
         inkscape:randomized="0"
         d="m 2211.4286,-23.048368 -43.9404,38.964274 -55.7143,-18.5714286 -11.7738,-57.5357034 43.9404,-38.964274 55.7143,18.571429 z"
         transform="matrix(-0.63100013,-0.17758081,0.17758081,-0.63100013,2646.2139,1081.986)" />
      <path
         transform="matrix(-0.41102517,-0.51064118,0.51064118,-0.41102517,2436.5869,1564.1243)"
         d="m 2211.4286,-23.048368 -43.9404,38.964274 -55.7143,-18.5714286 -11.7738,-57.5357034 43.9404,-38.964274 55.7143,18.571429 z"
         inkscape:randomized="0"
         inkscape:rounded="0"
         inkscape:flatsided="true"
         sodipodi:arg2="0.84534932"
         sodipodi:arg1="0.32175055"
         sodipodi:r2="60.012753"
         sodipodi:r1="58.728016"
         sodipodi:cy="-41.619797"
         sodipodi:cx="2155.7144"
         sodipodi:sides="6"
         id="path6699"
         style="display:inline;opacity:0.8091603;fill:#f3f6d4;fill-opacity:1;fill-rule:nonzero;stroke:none"
         sodipodi:type="star" />
      <path
         sodipodi:type="star"
         style="display:inline;opacity:0.8091603;fill:#f3f6d4;fill-opacity:1;fill-rule:nonzero;stroke:none"
         id="path6701"
         sodipodi:sides="6"
         sodipodi:cx="2155.7144"
         sodipodi:cy="-41.619797"
         sodipodi:r1="58.728016"
         sodipodi:r2="60.012753"
         sodipodi:arg1="0.32175055"
         sodipodi:arg2="0.84534932"
         inkscape:flatsided="true"
         inkscape:rounded="0"
         inkscape:randomized="0"
         d="m 2211.4286,-23.048368 -43.9404,38.964274 -55.7143,-18.5714286 -11.7738,-57.5357034 43.9404,-38.964274 55.7143,18.571429 z"
         transform="matrix(-0.13557713,-0.6413384,0.6413384,-0.13557713,1766.8106,1506.62)" />
      <path
         sodipodi:type="star"
         style="display:inline;opacity:0.8091603;fill:#f3f6d4;fill-opacity:1;fill-rule:nonzero;stroke:none"
         id="path6703"
         sodipodi:sides="6"
         sodipodi:cx="2155.7144"
         sodipodi:cy="-41.619797"
         sodipodi:r1="58.728016"
         sodipodi:r2="60.012753"
         sodipodi:arg1="0.32175055"
         sodipodi:arg2="0.84534932"
         inkscape:flatsided="true"
         inkscape:rounded="0"
         inkscape:randomized="0"
         d="m 2211.4286,-23.048368 -43.9404,38.964274 -55.7143,-18.5714286 -11.7738,-57.5357034 43.9404,-38.964274 55.7143,18.571429 z"
         transform="matrix(0.81373053,0.58124232,-0.58124232,0.81373053,-1438.5072,-1063.7295)" />
      <path
         transform="matrix(0.21913003,0.97569567,-0.97569567,0.21913003,4.6513628,-1740.8155)"
         d="m 2211.4286,-23.048368 -43.9404,38.964274 -55.7143,-18.5714286 -11.7738,-57.5357034 43.9404,-38.964274 55.7143,18.571429 z"
         inkscape:randomized="0"
         inkscape:rounded="0"
         inkscape:flatsided="true"
         sodipodi:arg2="0.84534932"
         sodipodi:arg1="0.32175055"
         sodipodi:r2="60.012753"
         sodipodi:r1="58.728016"
         sodipodi:cy="-41.619797"
         sodipodi:cx="2155.7144"
         sodipodi:sides="6"
         id="path6705"
         style="display:inline;opacity:0.8091603;fill:#f3f6d4;fill-opacity:1;fill-rule:nonzero;stroke:none"
         sodipodi:type="star" />
      <path
         sodipodi:type="star"
         style="display:inline;opacity:0.8091603;fill:#f3f6d4;fill-opacity:1;fill-rule:nonzero;stroke:none"
         id="path6707"
         sodipodi:sides="6"
         sodipodi:cx="2155.7144"
         sodipodi:cy="-41.619797"
         sodipodi:r1="58.728016"
         sodipodi:r2="60.012753"
         sodipodi:arg1="0.32175055"
         sodipodi:arg2="0.84534932"
         inkscape:flatsided="true"
         inkscape:rounded="0"
         inkscape:randomized="0"
         d="m 2211.4286,-23.048368 -43.9404,38.964274 -55.7143,-18.5714286 -11.7738,-57.5357034 43.9404,-38.964274 55.7143,18.571429 z"
         transform="matrix(-0.35817757,0.93365349,-0.93365349,-0.35817757,1319.6018,-1154.9936)" />
      <path
         sodipodi:type="star"
         style="display:inline;opacity:0.8091603;fill:#f6f6f6;fill-opacity:1;fill-rule:nonzero;stroke:none"
         id="path6709"
         sodipodi:sides="6"
         sodipodi:cx="1754.2856"
         sodipodi:cy="328.38019"
         sodipodi:r1="103.88376"
         sodipodi:r2="4.205852"
         sodipodi:arg1="1.0209431"
         sodipodi:arg2="1.7016545"
         inkscape:flatsided="false"
         inkscape:rounded="0"
         inkscape:randomized="0"
         d="m 1808.5714,416.95161 -54.8346,-84.40153 -49.0134,87.12863 45.6766,-89.68885 -99.9623,1.11743 100.5111,-5.28732 -50.9489,-86.0112 54.8345,84.40152 49.0135,-87.12862 -45.6766,89.68885 99.9623,-1.11743 -100.5111,5.28732 z"
         transform="matrix(0.48312907,0.55058555,-0.55058555,0.48312907,314.95527,-343.82005)" />
      <path
         transform="matrix(-0.46311027,0.56752711,-0.56752711,-0.46311027,2212.8277,-529.50461)"
         d="m 1808.5714,416.95161 -54.8346,-84.40153 -49.0134,87.12863 45.6766,-89.68885 -99.9623,1.11743 100.5111,-5.28732 -50.9489,-86.0112 54.8345,84.40152 49.0135,-87.12862 -45.6766,89.68885 99.9623,-1.11743 -100.5111,5.28732 z"
         inkscape:randomized="0"
         inkscape:rounded="0"
         inkscape:flatsided="false"
         sodipodi:arg2="1.7016545"
         sodipodi:arg1="1.0209431"
         sodipodi:r2="4.205852"
         sodipodi:r1="103.88376"
         sodipodi:cy="328.38019"
         sodipodi:cx="1754.2856"
         sodipodi:sides="6"
         id="path6711"
         style="display:inline;opacity:0.8091603;fill:#f6f6f6;fill-opacity:1;fill-rule:nonzero;stroke:none"
         sodipodi:type="star" />
      <path
         sodipodi:type="star"
         style="display:inline;opacity:0.8091603;fill:#f6f6f6;fill-opacity:1;fill-rule:nonzero;stroke:none"
         id="path6713"
         sodipodi:sides="6"
         sodipodi:cx="1754.2856"
         sodipodi:cy="328.38019"
         sodipodi:r1="103.88376"
         sodipodi:r2="4.205852"
         sodipodi:arg1="1.0209431"
         sodipodi:arg2="1.7016545"
         inkscape:flatsided="false"
         inkscape:rounded="0"
         inkscape:randomized="0"
         d="m 1808.5714,416.95161 -54.8346,-84.40153 -49.0134,87.12863 45.6766,-89.68885 -99.9623,1.11743 100.5111,-5.28732 -50.9489,-86.0112 54.8345,84.40152 49.0135,-87.12862 -45.6766,89.68885 99.9623,-1.11743 -100.5111,5.28732 z"
         transform="matrix(-0.69590824,0.22862605,-0.22862605,-0.69590824,2736.2076,741.50151)" />
      <path
         transform="matrix(-0.41458435,-0.08226211,0.08226211,-0.41458435,1233.4786,468.55975)"
         d="m 1808.5714,416.95161 -54.8346,-84.40153 -49.0134,87.12863 45.6766,-89.68885 -99.9623,1.11743 100.5111,-5.28732 -50.9489,-86.0112 54.8345,84.40152 49.0135,-87.12862 -45.6766,89.68885 99.9623,-1.11743 -100.5111,5.28732 z"
         inkscape:randomized="0"
         inkscape:rounded="0"
         inkscape:flatsided="false"
         sodipodi:arg2="1.7016545"
         sodipodi:arg1="1.0209431"
         sodipodi:r2="4.205852"
         sodipodi:r1="103.88376"
         sodipodi:cy="328.38019"
         sodipodi:cx="1754.2856"
         sodipodi:sides="6"
         id="path6715"
         style="display:inline;opacity:0.8091603;fill:#f6f6f6;fill-opacity:1;fill-rule:nonzero;stroke:none"
         sodipodi:type="star" />
      <path
         style="display:inline;fill:#d9b965;fill-opacity:1;fill-rule:evenodd;stroke:none;stroke-width:1px;stroke-linecap:butt;stroke-linejoin:miter;stroke-opacity:1"
         d="m 473.9568,236.51518 c -0.4715,-8.93156 -10.4547,-11.6062 -16.033,-8.41594 -5.8804,4.65604 -7.0992,9.04514 -6.9955,13.70118 0.5757,4.66011 1.4952,11.77184 1.1325,12.83557 14.1611,1.69564 12.736,1.29761 15.8557,1.51007 13.1202,-0.93273 15.9757,-4.24671 18.8759,-7.55034 1.155,-4.05444 0.052,-7.14109 -3.7752,-9.0604 -4.5536,-1.69388 -10.2768,-1.51501 -9.0604,-3.02014 z"
         id="path5285"
         inkscape:connector-curvature="0"
         sodipodi:nodetypes="cccccccc" />
      <path
         sodipodi:nodetypes="cccccccc"
         inkscape:connector-curvature="0"
         id="path7556"
         d="m 473.9568,236.51518 c -0.4715,-8.93156 -10.4547,-11.6062 -16.033,-8.41594 -5.8804,4.65604 -7.0992,9.04514 -6.9955,13.70118 0.5757,4.66011 1.4952,11.77184 1.1325,12.83557 14.1611,1.69564 12.736,1.29761 15.8557,1.51007 13.1202,-0.93273 15.9757,-4.24671 18.8759,-7.55034 1.155,-4.05444 0.052,-7.14109 -3.7752,-9.0604 -4.5536,-1.69388 -10.2768,-1.51501 -9.0604,-3.02014 z"
         style="display:inline;fill:#d9b965;fill-opacity:1;fill-rule:evenodd;stroke:none;stroke-width:1px;stroke-linecap:butt;stroke-linejoin:miter;stroke-opacity:1;opacity:0.809" />
      <path
         style="display:inline;opacity:0.80899999;fill:#d9b965;fill-opacity:1;fill-rule:evenodd;stroke:none;stroke-width:1px;stroke-linecap:butt;stroke-linejoin:miter;stroke-opacity:1"
         d="m 810.11246,263.09459 c -8.28903,-3.35962 -14.9439,4.54801 -14.41954,10.95272 1.72381,7.29974 5.18221,10.2644 9.44305,12.14447 4.46465,1.45431 11.29543,3.63664 12.10506,4.41611 7.53948,-12.10653 6.5748,-10.9846 8.08986,-13.71997 4.71771,-12.27814 2.92693,-16.26931 1.16448,-20.29658 -3.18235,-2.76499 -6.4455,-3.07465 -9.80636,-0.42215 -3.46467,3.40596 -5.7291,8.66518 -6.57655,6.9254 z"
         id="path8110"
         inkscape:connector-curvature="0"
         sodipodi:nodetypes="cccccccc" />
      <path
         sodipodi:nodetypes="cccccccc"
         inkscape:connector-curvature="0"
         id="path8112"
         d="m 1268.1703,117.70423 c -2.9564,-8.44122 -13.2891,-8.20995 -17.7494,-3.58377 -4.3393,6.11783 -4.2788,10.67261 -2.874,15.11285 1.859,4.31189 4.7354,10.88069 4.6854,12.00342 14.0686,-2.34224 12.5891,-2.32482 15.6433,-2.99542 12.3326,-4.57344 14.1445,-8.55505 16.0022,-12.53929 -0.028,-4.21561 -1.952,-6.86932 -6.1637,-7.6387 -4.8459,-0.34944 -10.2894,1.42671 -9.5438,-0.35909 z"
         style="display:inline;opacity:0.80899999;fill:#d9b965;fill-opacity:1;fill-rule:evenodd;stroke:none;stroke-width:1px;stroke-linecap:butt;stroke-linejoin:miter;stroke-opacity:1" />
      <path
         style="display:inline;opacity:0.80899999;fill:#d9b965;fill-opacity:1;fill-rule:evenodd;stroke:none;stroke-width:1px;stroke-linecap:butt;stroke-linejoin:miter;stroke-opacity:1"
         d="m 1357.8729,646.04792 c -8.6912,-2.11105 -14.1179,6.68496 -12.6623,12.94413 2.773,6.96904 6.6279,9.39595 11.1179,10.63253 4.6294,0.78565 11.7059,1.94529 12.6208,2.59798 5.6876,-13.07913 4.8974,-11.8282 5.9961,-14.75578 2.8709,-12.83615 0.5156,-16.5224 -1.8171,-20.24852 -3.5525,-2.26967 -6.8259,-2.09878 -9.7625,1.01676 -2.9293,3.87612 -4.4,9.40996 -5.4929,7.8129 z"
         id="path8114"
         inkscape:connector-curvature="0"
         sodipodi:nodetypes="cccccccc"
         inkscape:transform-center-x="1.6599572"
         inkscape:transform-center-y="-4.5206261" />
      <path
         inkscape:transform-center-y="-4.5206261"
         inkscape:transform-center-x="1.6599572"
         sodipodi:nodetypes="cccccccc"
         inkscape:connector-curvature="0"
         id="path8116"
         d="m 390.77026,586.55738 c -8.6912,-2.11105 -14.1179,6.68496 -12.6623,12.94413 2.773,6.96904 6.6279,9.39595 11.1179,10.63253 4.6294,0.78565 11.7059,1.94529 12.6208,2.59798 5.6876,-13.07913 4.8974,-11.8282 5.9961,-14.75578 2.8709,-12.83615 0.5156,-16.5224 -1.8171,-20.24852 -3.5525,-2.26967 -6.8259,-2.09878 -9.7625,1.01676 -2.9293,3.87612 -4.4,9.40996 -5.4929,7.8129 z"
         style="display:inline;opacity:0.80899999;fill:#d9b965;fill-opacity:1;fill-rule:evenodd;stroke:none;stroke-width:1px;stroke-linecap:butt;stroke-linejoin:miter;stroke-opacity:1" />
      <path
         style="display:inline;opacity:0.80899999;fill:#d9b965;fill-opacity:1;fill-rule:evenodd;stroke:none;stroke-width:1px;stroke-linecap:butt;stroke-linejoin:miter;stroke-opacity:1"
         d="m 698.1227,811.25677 c -8.6912,-2.11105 -14.1179,6.68496 -12.6623,12.94413 2.773,6.96904 6.6279,9.39595 11.1179,10.63253 4.6294,0.78565 11.7059,1.94529 12.6208,2.59798 5.6876,-13.07913 4.8974,-11.8282 5.9961,-14.75578 2.8709,-12.83615 0.5156,-16.5224 -1.8171,-20.24852 -3.5525,-2.26967 -6.8259,-2.09878 -9.7625,1.01676 -2.9293,3.87612 -4.4,9.40996 -5.4929,7.8129 z"
         id="path8118"
         inkscape:connector-curvature="0"
         sodipodi:nodetypes="cccccccc"
         inkscape:transform-center-x="1.6599572"
         inkscape:transform-center-y="-4.5206261" />
      <path
         inkscape:transform-center-y="-4.5206261"
         inkscape:transform-center-x="1.6599572"
         sodipodi:nodetypes="cccccccc"
         inkscape:connector-curvature="0"
         id="path8120"
         d="m 1116.8599,736.04643 c -8.6912,-2.11105 -14.1179,6.68496 -12.6623,12.94413 2.773,6.96904 6.6279,9.39595 11.1179,10.63253 4.6294,0.78565 11.7059,1.94529 12.6208,2.59798 5.6876,-13.07913 4.8974,-11.8282 5.9961,-14.75578 2.8709,-12.83615 0.5156,-16.5224 -1.8171,-20.24852 -3.5525,-2.26967 -6.8259,-2.09878 -9.7625,1.01676 -2.9293,3.87612 -4.4,9.40996 -5.4929,7.8129 z"
         style="display:inline;opacity:0.80899999;fill:#d9b965;fill-opacity:1;fill-rule:evenodd;stroke:none;stroke-width:1px;stroke-linecap:butt;stroke-linejoin:miter;stroke-opacity:1" />
      <path
         style="display:inline;opacity:0.80899999;fill:#d9b965;fill-opacity:1;fill-rule:evenodd;stroke:none;stroke-width:1px;stroke-linecap:butt;stroke-linejoin:miter;stroke-opacity:1"
         d="m 978.04864,423.33974 c -8.6912,-2.11105 -14.1179,6.68496 -12.6623,12.94413 2.773,6.96904 6.6279,9.39595 11.1179,10.63253 4.6294,0.78565 11.7059,1.94529 12.6208,2.59798 5.6876,-13.07913 4.8974,-11.8282 5.9961,-14.75578 2.8709,-12.83615 0.5156,-16.5224 -1.8171,-20.24852 -3.5525,-2.26967 -6.8259,-2.09878 -9.7625,1.01676 -2.9293,3.87612 -4.4,9.40996 -5.4929,7.8129 z"
         id="path8122"
         inkscape:connector-curvature="0"
         sodipodi:nodetypes="cccccccc"
         inkscape:transform-center-x="1.6599572"
         inkscape:transform-center-y="-4.5206261" />
      <path
         inkscape:transform-center-y="-4.5206261"
         inkscape:transform-center-x="1.6599572"
         sodipodi:nodetypes="cccccccc"
         inkscape:connector-curvature="0"
         id="path8124"
         d="m 1493.6333,296.73167 c -8.6912,-2.11105 -14.1179,6.68496 -12.6623,12.94413 2.773,6.96904 6.6279,9.39595 11.1179,10.63253 4.6294,0.78565 11.7059,1.94529 12.6208,2.59798 5.6876,-13.07913 4.8974,-11.8282 5.9961,-14.75578 2.8709,-12.83615 0.5156,-16.5224 -1.8171,-20.24852 -3.5525,-2.26967 -6.8259,-2.09878 -9.7625,1.01676 -2.9293,3.87612 -4.4,9.40996 -5.4929,7.8129 z"
         style="display:inline;opacity:0.80899999;fill:#d9b965;fill-opacity:1;fill-rule:evenodd;stroke:none;stroke-width:1px;stroke-linecap:butt;stroke-linejoin:miter;stroke-opacity:1" />
      <path
         style="display:inline;opacity:0.80899999;fill:#d9b965;fill-opacity:1;fill-rule:evenodd;stroke:none;stroke-width:1px;stroke-linecap:butt;stroke-linejoin:miter;stroke-opacity:1"
         d="m 611.76869,167.63076 c -8.6912,-2.11105 -14.1179,6.68496 -12.6623,12.94413 2.773,6.96904 6.6279,9.39595 11.1179,10.63253 4.6294,0.78565 11.7059,1.94529 12.6208,2.59798 5.6876,-13.07913 4.8974,-11.8282 5.9961,-14.75578 2.8709,-12.83615 0.5156,-16.5224 -1.8171,-20.24852 -3.5525,-2.26967 -6.8259,-2.09878 -9.7625,1.01676 -2.9293,3.87612 -4.4,9.40996 -5.4929,7.8129 z"
         id="path8126"
         inkscape:connector-curvature="0"
         sodipodi:nodetypes="cccccccc"
         inkscape:transform-center-x="1.6599572"
         inkscape:transform-center-y="-4.5206261" />
      <path
         sodipodi:type="star"
         style="display:inline;opacity:0.8091603;fill:#f6f6f6;fill-opacity:1;fill-rule:nonzero;stroke:none"
         id="path8128"
         sodipodi:sides="6"
         sodipodi:cx="1754.2856"
         sodipodi:cy="328.38019"
         sodipodi:r1="103.88376"
         sodipodi:r2="4.205852"
         sodipodi:arg1="1.0209431"
         sodipodi:arg2="1.7016545"
         inkscape:flatsided="false"
         inkscape:rounded="0"
         inkscape:randomized="0"
         d="m 1808.5714,416.95161 -54.8346,-84.40153 -49.0134,87.12863 45.6766,-89.68885 -99.9623,1.11743 100.5111,-5.28732 -50.9489,-86.0112 54.8345,84.40152 49.0135,-87.12862 -45.6766,89.68885 99.9623,-1.11743 -100.5111,5.28732 z"
         transform="matrix(-0.46311027,0.56752711,-0.56752711,-0.46311027,2209.7769,-135.9518)" />
      <path
         style="display:inline;opacity:0.80899999;fill:#d9b965;fill-opacity:1;fill-rule:evenodd;stroke:none;stroke-width:1px;stroke-linecap:butt;stroke-linejoin:miter;stroke-opacity:1"
         d="m 635.4524,544.35618 c -0.4715,-8.93156 -10.4547,-11.6062 -16.033,-8.41594 -5.8804,4.65604 -7.0992,9.04514 -6.9955,13.70118 0.5757,4.66011 1.4952,11.77184 1.1325,12.83557 14.1611,1.69564 12.736,1.29761 15.8557,1.51007 13.1202,-0.93273 15.9757,-4.24671 18.8759,-7.55034 1.155,-4.05444 0.052,-7.14109 -3.7752,-9.0604 -4.5536,-1.69388 -10.2768,-1.51501 -9.0604,-3.02014 z"
         id="path3361"
         inkscape:connector-curvature="0"
         sodipodi:nodetypes="cccccccc" />
      <path
         inkscape:transform-center-y="-4.5206261"
         inkscape:transform-center-x="1.6599572"
         sodipodi:nodetypes="cccccccc"
         inkscape:connector-curvature="0"
         id="path3365"
         d="m 804.36093,469.71312 c -8.6912,-2.11105 -14.1179,6.68496 -12.6623,12.94413 2.773,6.96904 6.6279,9.39595 11.1179,10.63253 4.6294,0.78565 11.7059,1.94529 12.6208,2.59798 5.6876,-13.07913 4.8974,-11.8282 5.9961,-14.75578 2.8709,-12.83615 0.5156,-16.5224 -1.8171,-20.24852 -3.5525,-2.26967 -6.8259,-2.09878 -9.7625,1.01676 -2.9293,3.87612 -4.4,9.40996 -5.4929,7.8129 z"
         style="display:inline;opacity:0.80899999;fill:#d9b965;fill-opacity:1;fill-rule:evenodd;stroke:none;stroke-width:1px;stroke-linecap:butt;stroke-linejoin:miter;stroke-opacity:1" />
      <path
         sodipodi:nodetypes="cccccccc"
         inkscape:connector-curvature="0"
         id="path3367"
         d="m 1125.4721,374.96219 c -0.4715,-8.93156 -10.4547,-11.6062 -16.033,-8.41594 -5.8804,4.65604 -7.0992,9.04514 -6.9955,13.70118 0.5757,4.66011 1.4952,11.77184 1.1325,12.83557 14.1611,1.69564 12.736,1.29761 15.8557,1.51007 13.1202,-0.93273 15.9757,-4.24671 18.8759,-7.55034 1.155,-4.05444 0.052,-7.14109 -3.7752,-9.0604 -4.5536,-1.69388 -10.2768,-1.51501 -9.0604,-3.02014 z"
         style="display:inline;opacity:0.80899999;fill:#d9b965;fill-opacity:1;fill-rule:evenodd;stroke:none;stroke-width:1px;stroke-linecap:butt;stroke-linejoin:miter;stroke-opacity:1" />
      <path
         style="display:inline;opacity:0.80899999;fill:#d9b965;fill-opacity:1;fill-rule:evenodd;stroke:none;stroke-width:1px;stroke-linecap:butt;stroke-linejoin:miter;stroke-opacity:1"
         d="m 1424.7725,413.05887 c -8.289,-3.35962 -14.9439,4.54801 -14.4195,10.95272 1.7238,7.29974 5.1822,10.2644 9.443,12.14447 4.4647,1.45431 11.2955,3.63664 12.1051,4.41611 7.5395,-12.10653 6.5748,-10.9846 8.0899,-13.71997 4.7177,-12.27814 2.9269,-16.26931 1.1644,-20.29658 -3.1823,-2.76499 -6.4455,-3.07465 -9.8063,-0.42215 -3.4647,3.40596 -5.7291,8.66518 -6.5766,6.9254 z"
         id="path3369"
         inkscape:connector-curvature="0"
         sodipodi:nodetypes="cccccccc" />
      <path
         style="display:inline;opacity:0.80899999;fill:#d9b965;fill-opacity:1;fill-rule:evenodd;stroke:none;stroke-width:1px;stroke-linecap:butt;stroke-linejoin:miter;stroke-opacity:1"
         d="m 1231.0357,248.4914 c -8.6912,-2.11105 -14.1179,6.68496 -12.6623,12.94413 2.773,6.96904 6.6279,9.39595 11.1179,10.63253 4.6294,0.78565 11.7059,1.94529 12.6208,2.59798 5.6876,-13.07913 4.8974,-11.8282 5.9961,-14.75578 2.8709,-12.83615 0.5156,-16.5224 -1.8171,-20.24852 -3.5525,-2.26967 -6.8259,-2.09878 -9.7625,1.01676 -2.9293,3.87612 -4.4,9.40996 -5.4929,7.8129 z"
         id="path3371"
         inkscape:connector-curvature="0"
         sodipodi:nodetypes="cccccccc"
         inkscape:transform-center-x="1.6599572"
         inkscape:transform-center-y="-4.5206261" />
      <path
         style="display:inline;opacity:0.80899999;fill:#d9b965;fill-opacity:1;fill-rule:evenodd;stroke:none;stroke-width:1px;stroke-linecap:butt;stroke-linejoin:miter;stroke-opacity:1"
         d="m 1033.6548,749.51333 c -2.1664,-8.67765 -12.4765,-9.39898 -17.3439,-5.20328 -4.8843,5.69219 -5.2436,10.23318 -4.2537,14.78396 1.454,4.46474 3.7131,11.27052 3.56,12.3839 14.2245,-1.03659 12.7497,-1.15549 15.8526,-1.54199 12.7015,-3.41816 14.8724,-7.21596 17.0892,-11.01212 0.3605,-4.20031 -1.311,-7.0199 -5.434,-8.17397 -4.7931,-0.79422 -10.3771,0.47301 -9.4702,-1.2365 z"
         id="path3373"
         inkscape:connector-curvature="0"
         sodipodi:nodetypes="cccccccc" />
      <path
         sodipodi:nodetypes="cccccccc"
         inkscape:connector-curvature="0"
         id="path3375"
         d="m 1334.7268,729.82178 c -8.7776,-1.71689 -13.802,7.31492 -12.0656,13.50202 3.0845,6.83692 7.0449,9.08749 11.586,10.12034 4.6602,0.57601 11.7818,1.41536 12.7252,2.02609 5.0919,-13.32235 4.3589,-12.03701 5.3244,-15.01115 2.2892,-12.95257 -0.23,-16.52889 -2.7283,-20.14604 -3.6513,-2.10723 -6.9136,-1.78878 -9.7068,1.45606 -2.7514,4.00429 -3.9711,9.59887 -5.1349,8.05268 z"
         style="display:inline;opacity:0.80899999;fill:#d9b965;fill-opacity:1;fill-rule:evenodd;stroke:none;stroke-width:1px;stroke-linecap:butt;stroke-linejoin:miter;stroke-opacity:1" />
      <path
         inkscape:transform-center-y="-5.7306021"
         inkscape:transform-center-x="2.6105105"
         sodipodi:nodetypes="cccccccc"
         inkscape:connector-curvature="0"
         id="path3377"
         d="m 1184.7892,643.91086 c -8.9343,-0.41453 -12.5836,9.25508 -9.9608,15.12169 4.0514,6.31217 8.2984,7.95924 12.9418,8.31669 4.6943,-0.11179 11.8621,-0.32322 12.8847,0.14298 3.0884,-13.92386 2.5513,-12.54517 3.0714,-15.62857 0.3699,-13.14808 -2.6453,-16.3174 -5.6459,-19.53017 -3.9202,-1.5504 -7.1009,-0.75827 -9.3893,2.8602 -2.1362,4.36369 -2.5244,10.07645 -3.9019,8.71718 z"
         style="display:inline;opacity:0.80899999;fill:#d9b965;fill-opacity:1;fill-rule:evenodd;stroke:none;stroke-width:1px;stroke-linecap:butt;stroke-linejoin:miter;stroke-opacity:1" />
      <path
         sodipodi:nodetypes="cccccccc"
         inkscape:connector-curvature="0"
         id="path3379"
         d="m 591.81279,471.73027 c -6.72481,-5.89678 -15.60854,-0.61498 -17.21783,5.60639 -0.77055,7.46083 1.52165,11.39727 4.92812,14.57302 3.73886,2.84061 9.47324,7.1463 9.98179,8.14852 11.09893,-8.95686 9.81916,-8.21421 12.14892,-10.29986 8.49024,-10.04615 8.11037,-14.40414 7.76911,-18.78691 -2.09708,-3.65715 -5.07728,-5.02186 -9.12311,-3.621 -4.39146,2.07837 -8.25829,6.30148 -8.487,4.37984 z"
         style="display:inline;opacity:0.80899999;fill:#d9b965;fill-opacity:1;fill-rule:evenodd;stroke:none;stroke-width:1px;stroke-linecap:butt;stroke-linejoin:miter;stroke-opacity:1" />
      <path
         sodipodi:nodetypes="cccccccc"
         inkscape:connector-curvature="0"
         id="path3381"
         d="m 395.86741,689.16204 c 2.48952,-8.59054 -6.06046,-14.39706 -12.37731,-13.21693 -7.08381,2.46524 -9.67715,6.21013 -11.10915,10.64171 -0.98754,4.59051 -2.45596,11.60948 -3.14805,12.49496 12.81758,6.25472 11.60241,5.41051 14.47906,6.63628 12.69815,3.43026 16.48404,1.23859 20.30874,-0.92861 2.42313,-3.44978 2.39562,-6.72747 -0.58839,-9.79779 -3.74415,-3.0961 -9.20833,-4.80776 -7.5649,-5.82962 z"
         style="display:inline;opacity:0.80899999;fill:#d9b965;fill-opacity:1;fill-rule:evenodd;stroke:none;stroke-width:1px;stroke-linecap:butt;stroke-linejoin:miter;stroke-opacity:1" />
      <path
         style="display:inline;opacity:0.80899999;fill:#d9b965;fill-opacity:1;fill-rule:evenodd;stroke:none;stroke-width:1px;stroke-linecap:butt;stroke-linejoin:miter;stroke-opacity:1"
         d="m 583.47265,653.45052 c -7.51492,-4.84969 -15.53058,1.67472 -16.21253,8.06463 0.32905,7.49325 3.17243,11.05209 7.00678,13.69538 4.11418,2.26321 10.41669,5.68374 11.06632,6.60082 9.66948,-10.48397 8.51211,-9.56216 10.51178,-11.96615 6.92934,-11.18003 5.9161,-15.43552 4.93731,-19.72124 -2.60945,-3.31097 -5.75723,-4.22518 -9.55451,-2.24758 -4.04031,2.69834 -7.24772,7.44164 -7.75515,5.57414 z"
         id="path3383"
         inkscape:connector-curvature="0"
         sodipodi:nodetypes="cccccccc"
         inkscape:transform-center-x="-0.81642145"
         inkscape:transform-center-y="-2.3082634" />
      <path
         style="display:inline;opacity:0.80899999;fill:#d9b965;fill-opacity:1;fill-rule:evenodd;stroke:none;stroke-width:1px;stroke-linecap:butt;stroke-linejoin:miter;stroke-opacity:1"
         d="m 922.58662,663.21872 c -6.72481,-5.89678 -15.60854,-0.61498 -17.21783,5.60639 -0.77055,7.46083 1.52165,11.39727 4.92812,14.57302 3.73886,2.84061 9.47324,7.1463 9.98179,8.14852 11.09893,-8.95686 9.81916,-8.21421 12.14892,-10.29986 8.49024,-10.04615 8.11037,-14.40414 7.76911,-18.78691 -2.09708,-3.65715 -5.07728,-5.02186 -9.12311,-3.621 -4.39146,2.07837 -8.25829,6.30148 -8.487,4.37984 z"
         id="path3385"
         inkscape:connector-curvature="0"
         sodipodi:nodetypes="cccccccc" />
      <path
         style="display:inline;opacity:0.80899999;fill:#d9b965;fill-opacity:1;fill-rule:evenodd;stroke:none;stroke-width:1px;stroke-linecap:butt;stroke-linejoin:miter;stroke-opacity:1"
         d="m 775.01379,902.53331 c 2.48952,-8.59054 -6.06046,-14.39706 -12.37731,-13.21693 -7.08381,2.46524 -9.67715,6.21013 -11.10915,10.64171 -0.98754,4.59051 -2.45596,11.60948 -3.14805,12.49496 12.81758,6.25472 11.60241,5.41051 14.47906,6.63628 12.69815,3.43026 16.48404,1.23859 20.30874,-0.92861 2.42313,-3.44978 2.39562,-6.72747 -0.58839,-9.79779 -3.74415,-3.0961 -9.20833,-4.80776 -7.5649,-5.82962 z"
         id="path3387"
         inkscape:connector-curvature="0"
         sodipodi:nodetypes="cccccccc" />
      <path
         inkscape:transform-center-y="-2.3082634"
         inkscape:transform-center-x="-0.81642145"
         sodipodi:nodetypes="cccccccc"
         inkscape:connector-curvature="0"
         id="path3389"
         d="m 921.15685,844.93897 c -7.51492,-4.84969 -15.53058,1.67472 -16.21253,8.06463 0.32905,7.49325 3.17243,11.05209 7.00678,13.69538 4.11418,2.26321 10.41669,5.68374 11.06632,6.60082 9.66948,-10.48397 8.51211,-9.56216 10.51178,-11.96615 6.92934,-11.18003 5.9161,-15.43552 4.93731,-19.72124 -2.60945,-3.31097 -5.75723,-4.22518 -9.55451,-2.24758 -4.04031,2.69834 -7.24772,7.44164 -7.75515,5.57414 z"
         style="display:inline;opacity:0.80899999;fill:#d9b965;fill-opacity:1;fill-rule:evenodd;stroke:none;stroke-width:1px;stroke-linecap:butt;stroke-linejoin:miter;stroke-opacity:1" />
      <path
         sodipodi:nodetypes="cccccccc"
         inkscape:connector-curvature="0"
         id="path3391"
         d="m 1510.2884,582.42331 c -5.2753,-7.22266 -15.0978,-4.0077 -18.0265,1.71226 -2.3807,7.11266 -1.0032,11.45456 1.6278,15.29738 3.0285,3.58834 7.6846,9.04207 7.9621,10.13113 12.7866,-6.31774 11.3756,-5.8724 14.1044,-7.39914 10.4787,-7.95026 11.0594,-12.28607 11.6833,-16.63761 -1.2482,-4.02676 -3.8585,-6.00917 -8.1127,-5.52538 -4.7392,1.06953 -9.4347,4.3466 -9.2384,2.42136 z"
         style="display:inline;opacity:0.80899999;fill:#d9b965;fill-opacity:1;fill-rule:evenodd;stroke:none;stroke-width:1px;stroke-linecap:butt;stroke-linejoin:miter;stroke-opacity:1" />
      <path
         sodipodi:nodetypes="cccccccc"
         inkscape:connector-curvature="0"
         id="path3393"
         d="m 1255.4769,838.21222 c 4.3049,-7.83983 -2.7712,-15.37288 -9.1933,-15.60026 -7.4512,0.85926 -10.7995,3.94766 -13.1644,7.95972 -1.9659,4.26419 -4.9313,10.79326 -5.7999,11.50631 11.1428,8.90209 10.1413,7.81297 12.6809,9.63717 11.643,6.11972 15.8161,4.80743 20.0217,3.52749 3.1178,-2.83757 3.8065,-6.0422 1.5648,-9.68991 -2.978,-3.83883 -7.9367,-6.70211 -6.1098,-7.34052 z"
         style="display:inline;opacity:0.80899999;fill:#d9b965;fill-opacity:1;fill-rule:evenodd;stroke:none;stroke-width:1px;stroke-linecap:butt;stroke-linejoin:miter;stroke-opacity:1" />
      <path
         style="display:inline;opacity:0.80899999;fill:#d9b965;fill-opacity:1;fill-rule:evenodd;stroke:none;stroke-width:1px;stroke-linecap:butt;stroke-linejoin:miter;stroke-opacity:1"
         d="m 1446.3531,844.31899 c -6.2748,-6.37332 -15.5216,-1.75623 -17.582,4.33068 -1.3148,7.38432 0.683,11.47808 3.8479,14.89471 3.5207,3.10678 8.9245,7.82073 9.3583,8.85753 11.725,-8.12009 10.3943,-7.4732 12.8706,-9.38264 9.2029,-9.39758 9.1432,-13.77162 9.1236,-18.16765 -1.8237,-3.80079 -4.696,-5.38016 -8.8333,-4.27925 -4.532,1.75118 -8.6976,5.67984 -8.7851,3.74662 z"
         id="path3395"
         inkscape:connector-curvature="0"
         sodipodi:nodetypes="cccccccc"
         inkscape:transform-center-x="-2.6129735"
         inkscape:transform-center-y="-0.88732279" />
      <path
         sodipodi:type="star"
         style="display:inline;opacity:0.8091603;fill:#f3f6d4;fill-opacity:1;fill-rule:nonzero;stroke:none"
         id="path3397"
         sodipodi:sides="6"
         sodipodi:cx="1035.3527"
         sodipodi:cy="479.39581"
         sodipodi:r1="58.728016"
         sodipodi:r2="60.012753"
         sodipodi:arg1="0.32175055"
         sodipodi:arg2="0.84534932"
         inkscape:flatsided="true"
         inkscape:rounded="0"
         inkscape:randomized="0"
         d="m 1091.0669,497.96724 -43.9404,38.96428 -55.71431,-18.57143 -11.77382,-57.53571 43.94043,-38.96427 55.7143,18.57143 z"
         transform="matrix(0.52698999,0.29523787,-0.29523787,0.52698999,399.46196,170.6558)" />
      <path
         sodipodi:type="star"
         style="display:inline;opacity:0.8091603;fill:#f3f6d4;fill-opacity:1;fill-rule:nonzero;stroke:none"
         id="path3399"
         sodipodi:sides="6"
         sodipodi:cx="2155.7144"
         sodipodi:cy="-41.619797"
         sodipodi:r1="58.728016"
         sodipodi:r2="60.012753"
         sodipodi:arg1="0.32175055"
         sodipodi:arg2="0.84534932"
         inkscape:flatsided="true"
         inkscape:rounded="0"
         inkscape:randomized="0"
         d="m 2211.4286,-23.048368 -43.9404,38.964274 -55.7143,-18.5714286 -11.7738,-57.5357034 43.9404,-38.964274 55.7143,18.571429 z"
         transform="matrix(-0.17258298,0.57887734,-0.57887734,-0.17258298,819.52117,-579.42667)" />
      <path
         transform="matrix(0.52701818,0.5087337,-0.5087337,0.52701818,299.11189,-542.21836)"
         d="m 1808.5714,416.95161 -54.8346,-84.40153 -49.0134,87.12863 45.6766,-89.68885 -99.9623,1.11743 100.5111,-5.28732 -50.9489,-86.0112 54.8345,84.40152 49.0135,-87.12862 -45.6766,89.68885 99.9623,-1.11743 -100.5111,5.28732 z"
         inkscape:randomized="0"
         inkscape:rounded="0"
         inkscape:flatsided="false"
         sodipodi:arg2="1.7016545"
         sodipodi:arg1="1.0209431"
         sodipodi:r2="4.205852"
         sodipodi:r1="103.88376"
         sodipodi:cy="328.38019"
         sodipodi:cx="1754.2856"
         sodipodi:sides="6"
         id="path3401"
         style="display:inline;opacity:0.8091603;fill:#f6f6f6;fill-opacity:1;fill-rule:nonzero;stroke:none"
         sodipodi:type="star"
         inkscape:transform-center-x="132.32998"
         inkscape:transform-center-y="7.0710678" />
      <path
         sodipodi:type="star"
         style="display:inline;opacity:0.8091603;fill:#f6f6f6;fill-opacity:1;fill-rule:nonzero;stroke:none"
         id="path3403"
         sodipodi:sides="6"
         sodipodi:cx="1754.2856"
         sodipodi:cy="328.38019"
         sodipodi:r1="103.88376"
         sodipodi:r2="4.205852"
         sodipodi:arg1="1.0209431"
         sodipodi:arg2="1.7016545"
         inkscape:flatsided="false"
         inkscape:rounded="0"
         inkscape:randomized="0"
         d="m 1808.5714,416.95161 -54.8346,-84.40153 -49.0134,87.12863 45.6766,-89.68885 -99.9623,1.11743 100.5111,-5.28732 -50.9489,-86.0112 54.8345,84.40152 49.0135,-87.12862 -45.6766,89.68885 99.9623,-1.11743 -100.5111,5.28732 z"
         transform="matrix(-0.3532672,0.43291787,-0.43291787,-0.3532672,1448.9796,24.724306)" />
      <path
         inkscape:transform-center-y="64.827824"
         inkscape:transform-center-x="63.62402"
         sodipodi:type="star"
         style="display:inline;opacity:0.8091603;fill:#f6f6f6;fill-opacity:1;fill-rule:nonzero;stroke:none"
         id="path3405"
         sodipodi:sides="6"
         sodipodi:cx="1754.2856"
         sodipodi:cy="328.38019"
         sodipodi:r1="103.88376"
         sodipodi:r2="4.205852"
         sodipodi:arg1="1.0209431"
         sodipodi:arg2="1.7016545"
         inkscape:flatsided="false"
         inkscape:rounded="0"
         inkscape:randomized="0"
         d="m 1808.5714,416.95161 -54.8346,-84.40153 -49.0134,87.12863 45.6766,-89.68885 -99.9623,1.11743 100.5111,-5.28732 -50.9489,-86.0112 54.8345,84.40152 49.0135,-87.12862 -45.6766,89.68885 99.9623,-1.11743 -100.5111,5.28732 z"
         transform="matrix(0.50190849,0.01323405,-0.01323405,0.50190849,-199.97915,288.79603)" />
      <path
         transform="matrix(0.50190849,0.01323405,-0.01323405,0.50190849,-489.0627,233.51312)"
         d="m 1808.5714,416.95161 -54.8346,-84.40153 -49.0134,87.12863 45.6766,-89.68885 -99.9623,1.11743 100.5111,-5.28732 -50.9489,-86.0112 54.8345,84.40152 49.0135,-87.12862 -45.6766,89.68885 99.9623,-1.11743 -100.5111,5.28732 z"
         inkscape:randomized="0"
         inkscape:rounded="0"
         inkscape:flatsided="false"
         sodipodi:arg2="1.7016545"
         sodipodi:arg1="1.0209431"
         sodipodi:r2="4.205852"
         sodipodi:r1="103.88376"
         sodipodi:cy="328.38019"
         sodipodi:cx="1754.2856"
         sodipodi:sides="6"
         id="path3416"
         style="display:inline;opacity:0.8091603;fill:#f6f6f6;fill-opacity:1;fill-rule:nonzero;stroke:none"
         sodipodi:type="star"
         inkscape:transform-center-x="63.62402"
         inkscape:transform-center-y="64.827824" />
      <path
         style="display:inline;opacity:0.80899999;fill:#d9b965;fill-opacity:1;fill-rule:evenodd;stroke:none;stroke-width:1px;stroke-linecap:butt;stroke-linejoin:miter;stroke-opacity:1"
         d="m 924.28217,276.82564 c -0.4715,-8.93156 -10.4547,-11.6062 -16.033,-8.41594 -5.8804,4.65604 -7.0992,9.04514 -6.9955,13.70118 0.5757,4.66011 1.4952,11.77184 1.1325,12.83557 14.1611,1.69564 12.736,1.29761 15.8557,1.51007 13.1202,-0.93273 15.9757,-4.24671 18.8759,-7.55034 1.155,-4.05444 0.052,-7.14109 -3.7752,-9.0604 -4.5536,-1.69388 -10.2768,-1.51501 -9.0604,-3.02014 z"
         id="path3418"
         inkscape:connector-curvature="0"
         sodipodi:nodetypes="cccccccc" />
      <path
         sodipodi:nodetypes="cccccccc"
         inkscape:connector-curvature="0"
         id="path3420"
         d="m 1227.0377,377.11559 c -8.289,-3.35962 -14.9439,4.54801 -14.4195,10.95272 1.7238,7.29974 5.1822,10.2644 9.443,12.14447 4.4647,1.45431 11.2955,3.63664 12.1051,4.41611 7.5395,-12.10653 6.5748,-10.9846 8.0899,-13.71997 4.7177,-12.27814 2.9269,-16.26931 1.1644,-20.29658 -3.1823,-2.76499 -6.4455,-3.07465 -9.8063,-0.42215 -3.4647,3.40596 -5.7291,8.66518 -6.5766,6.9254 z"
         style="display:inline;opacity:0.80899999;fill:#d9b965;fill-opacity:1;fill-rule:evenodd;stroke:none;stroke-width:1px;stroke-linecap:butt;stroke-linejoin:miter;stroke-opacity:1" />
      <path
         inkscape:transform-center-y="-4.5206261"
         inkscape:transform-center-x="1.6599572"
         sodipodi:nodetypes="cccccccc"
         inkscape:connector-curvature="0"
         id="path3422"
         d="m 983.77663,301.23112 c -8.6912,-2.11105 -14.1179,6.68496 -12.6623,12.94413 2.773,6.96904 6.6279,9.39595 11.1179,10.63253 4.6294,0.78565 11.7059,1.94529 12.6208,2.59798 5.68757,-13.07913 4.8974,-11.8282 5.99607,-14.75578 2.8709,-12.83615 0.5156,-16.5224 -1.81707,-20.24852 -3.5525,-2.26967 -6.8259,-2.09878 -9.7625,1.01676 -2.9293,3.87612 -4.4,9.40996 -5.4929,7.8129 z"
         style="display:inline;opacity:0.80899999;fill:#d9b965;fill-opacity:1;fill-rule:evenodd;stroke:none;stroke-width:1px;stroke-linecap:butt;stroke-linejoin:miter;stroke-opacity:1" />
      <path
         sodipodi:nodetypes="cccccccc"
         inkscape:connector-curvature="0"
         id="path3424"
         d="m 636.3368,276.00802 c -5.65326,-6.93077 -15.29017,-3.19609 -17.90936,2.67206 -1.9977,7.22958 -0.39038,11.49177 2.44199,15.18868 3.21575,3.42155 8.1563,8.61897 8.49152,9.69168 12.43115,-6.99129 11.04591,-6.47127 13.6894,-8.14147 10.03935,-8.4983 10.38778,-12.85891 10.7784,-17.23756 -1.46125,-3.95439 -4.17373,-5.79464 -8.39591,-5.08444 -4.67541,1.32097 -9.18931,4.844 -9.09604,2.91105 z"
         style="display:inline;opacity:0.80899999;fill:#d9b965;fill-opacity:1;fill-rule:evenodd;stroke:none;stroke-width:1px;stroke-linecap:butt;stroke-linejoin:miter;stroke-opacity:1" />
      <path
         style="display:inline;opacity:0.80899999;fill:#d9b965;fill-opacity:1;fill-rule:evenodd;stroke:none;stroke-width:1px;stroke-linecap:butt;stroke-linejoin:miter;stroke-opacity:1"
         d="m 349.68914,915.75635 c -1.61059,-8.79778 -11.85398,-10.17289 -16.97816,-6.295 -5.23622,5.37027 -5.88333,9.87924 -5.18465,14.48374 1.16732,4.54812 2.98934,11.48371 2.76575,12.5851 14.26166,-0.13048 12.79734,-0.34287 15.91858,-0.53138 12.89296,-2.60405 15.3009,-6.2562 17.75449,-9.9038 0.62666,-4.16892 -0.86227,-7.08903 -4.90361,-8.5028 -4.73293,-1.09723 -10.38618,-0.18743 -9.3724,-1.83586 z"
         id="path3426"
         inkscape:connector-curvature="0"
         sodipodi:nodetypes="cccccccc" />
      <path
         inkscape:transform-center-y="-5.3375185"
         inkscape:transform-center-x="2.3693215"
         sodipodi:nodetypes="cccccccc"
         inkscape:connector-curvature="0"
         id="path3428"
         d="m 424.41145,820.72448 c -8.8899,-0.98149 -13.14635,8.43665 -10.90175,14.45809 3.64203,6.55688 7.77581,8.47053 12.38713,9.12236 4.69188,0.18677 11.8586,0.4313 12.84951,0.96154 3.9671,-13.69943 3.34348,-12.35767 4.0585,-15.40178 1.20466,-13.098 -1.603,-16.45253 -4.39334,-19.8495 -3.81375,-1.7964 -7.03836,-1.20802 -9.55213,2.2577 -2.40919,4.21912 -3.15963,9.89567 -4.44792,8.45159 z"
         style="display:inline;opacity:0.80899999;fill:#d9b965;fill-opacity:1;fill-rule:evenodd;stroke:none;stroke-width:1px;stroke-linecap:butt;stroke-linejoin:miter;stroke-opacity:1" />
      <path
         inkscape:transform-center-y="-0.80465153"
         inkscape:transform-center-x="-3.6188155"
         sodipodi:nodetypes="cccccccc"
         inkscape:connector-curvature="0"
         id="path3430"
         d="m 1378.7422,490.20924 c -5.3653,-7.15591 -15.1468,-3.81812 -18.0036,1.93818 -2.2914,7.14189 -0.8595,11.46622 1.8195,15.27574 3.0732,3.55013 7.7973,8.945 8.0884,10.03051 12.7065,-6.47752 11.3012,-6.01456 14.0107,-7.57535 10.3781,-8.08111 10.9044,-12.42379 11.4735,-16.78288 -1.2985,-4.01068 -3.9335,-5.96031 -8.1811,-5.42316 -4.7255,1.1288 -9.3795,4.4645 -9.2074,2.53696 z"
         style="display:inline;opacity:0.80899999;fill:#d9b965;fill-opacity:1;fill-rule:evenodd;stroke:none;stroke-width:1px;stroke-linecap:butt;stroke-linejoin:miter;stroke-opacity:1" />
      <path
         style="display:inline;opacity:0.80899999;fill:#d9b965;fill-opacity:1;fill-rule:evenodd;stroke:none;stroke-width:1px;stroke-linecap:butt;stroke-linejoin:miter;stroke-opacity:1"
         d="m 1137.1045,514.40152 c -6.6317,-6.00116 -15.597,-0.85891 -17.3033,5.33664 -0.887,7.44785 1.3434,11.41965 4.6998,14.64821 3.694,2.89878 9.3604,7.29354 9.8532,8.3036 11.2376,-8.78226 9.9464,-8.05976 12.3085,-10.10874 8.6462,-9.9122 8.3345,-14.27555 8.0616,-18.66315 -2.0396,-3.68939 -4.9981,-5.10061 -9.0652,-3.76312 -4.4235,2.00942 -8.3558,6.17155 -8.5546,4.24656 z"
         id="path3432"
         inkscape:connector-curvature="0"
         sodipodi:nodetypes="cccccccc"
         inkscape:transform-center-x="-2.1615742"
         inkscape:transform-center-y="-1.2503552" />
    </g>
  </g>
</svg>
